<svg viewBox="0 0 1000 1000" xmlns="http://www.w3.org/2000/svg"><path d="m1000 636.96c-1.1 52.91 4.54 105.18-19.82 152.24-24.74 45.13-74.7 75.98-108.33 59.12-69.87-36.04-2.78-213.39-137.7-142.79-29.28 17.14-55.51 43.55-73.86 72.74-37.34 58.84-33.72 126.47-73.02 181.07-20 27.42-53.64 41.04-87.28 41.13-33.64-.09-67.28-13.72-87.28-41.13-39.3-54.59-35.68-122.23-73.02-181.07-18.35-29.19-44.58-55.6-73.86-72.74-134.92-70.6-67.83 106.75-137.7 142.79-33.62 16.87-83.58-13.99-108.33-59.12-24.34-47.06-18.7-99.33-19.8-152.24v-363.18c6.03-68.29 68.2-111.07 126.38-144.79 45.49-26.32 131.22-75.8 131.22-75.8 77.56-47.35 156.03-53.93 242.4-53.65 86.37-.27 164.84 6.3 242.4 53.66 0 0 85.73 49.48 131.22 75.8 58.18 33.72 120.36 76.5 126.38 144.79v363.18z" fill="#dea85f"/></svg>